<?xml version="1.0" standalone="no"?>
<!DOCTYPE svg PUBLIC "-//W3C//DTD SVG 20010904//EN"
 "http://www.w3.org/TR/2001/REC-SVG-20010904/DTD/svg10.dtd">
<svg version="1.0" xmlns="http://www.w3.org/2000/svg"
 width="24.000000pt" height="24.000000pt" viewBox="0 0 24.000000 24.000000"
 preserveAspectRatio="xMidYMid meet">
<metadata>
Created by potrace 1.16, written by Peter Selinger 2001-2019
</metadata>
<g transform="translate(0.000000,24.000000) scale(0.100000,-0.100000)"
fill="#000000" stroke="none">
<path d="M34 206 c-30 -30 -34 -40 -34 -86 0 -46 4 -56 34 -86 30 -30 40 -34
86 -34 75 0 120 45 120 120 0 46 -4 56 -34 86 -30 30 -40 34 -86 34 -46 0 -56
-4 -86 -34z m132 -5 c17 -10 37 -33 44 -51 18 -43 -6 -94 -55 -117 -33 -16
-37 -16 -70 0 -49 23 -73 74 -55 117 13 32 62 70 90 70 8 0 29 -9 46 -19z"/>
</g>
</svg>
